<mxfile host="65bd71144e">
    <diagram id="rKGhsMUT5y3-hI4Df5oq" name="ページ1">
        <mxGraphModel dx="1654" dy="1093" grid="1" gridSize="10" guides="1" tooltips="1" connect="1" arrows="1" fold="1" page="1" pageScale="1" pageWidth="827" pageHeight="1169" math="0" shadow="0">
            <root>
                <mxCell id="0"/>
                <mxCell id="1" parent="0"/>
                <mxCell id="3" value="presentation" style="shape=folder;fontStyle=1;spacingTop=10;tabWidth=40;tabHeight=14;tabPosition=left;html=1;verticalAlign=top;fillColor=none;" vertex="1" parent="1">
                    <mxGeometry x="-360" y="270" width="280" height="360" as="geometry"/>
                </mxCell>
                <mxCell id="4" value="application" style="shape=folder;fontStyle=1;spacingTop=10;tabWidth=40;tabHeight=14;tabPosition=left;html=1;verticalAlign=top;fillColor=none;" vertex="1" parent="1">
                    <mxGeometry x="-40" y="270" width="380" height="370" as="geometry"/>
                </mxCell>
                <mxCell id="5" value="infrastructure" style="shape=folder;fontStyle=1;spacingTop=10;tabWidth=40;tabHeight=14;tabPosition=left;html=1;verticalAlign=top;fillColor=none;" vertex="1" parent="1">
                    <mxGeometry x="380" y="275" width="280" height="360" as="geometry"/>
                </mxCell>
                <mxCell id="6" value="Router" style="html=1;" vertex="1" parent="1">
                    <mxGeometry x="-240" y="430" width="110" height="50" as="geometry"/>
                </mxCell>
                <mxCell id="7" value="Request" style="html=1;" vertex="1" parent="1">
                    <mxGeometry x="-320" y="350" width="110" height="50" as="geometry"/>
                </mxCell>
                <mxCell id="8" value="Response" style="html=1;" vertex="1" parent="1">
                    <mxGeometry x="-320" y="510" width="110" height="50" as="geometry"/>
                </mxCell>
                <mxCell id="33" style="edgeStyle=none;html=1;exitX=0.5;exitY=1;exitDx=0;exitDy=0;entryX=0.5;entryY=0;entryDx=0;entryDy=0;fontSize=14;" edge="1" parent="1" source="9" target="32">
                    <mxGeometry relative="1" as="geometry"/>
                </mxCell>
                <mxCell id="9" value="Service" style="html=1;" vertex="1" parent="1">
                    <mxGeometry x="90" y="350" width="110" height="50" as="geometry"/>
                </mxCell>
                <mxCell id="11" value="Gateway" style="html=1;" vertex="1" parent="1">
                    <mxGeometry x="480" y="350" width="110" height="50" as="geometry"/>
                </mxCell>
                <mxCell id="12" value="Record" style="html=1;" vertex="1" parent="1">
                    <mxGeometry x="480" y="470" width="110" height="50" as="geometry"/>
                </mxCell>
                <mxCell id="13" value="" style="endArrow=open;endFill=1;endSize=12;html=1;" edge="1" parent="1" source="6" target="7">
                    <mxGeometry width="160" relative="1" as="geometry">
                        <mxPoint x="-20" y="530" as="sourcePoint"/>
                        <mxPoint x="140" y="530" as="targetPoint"/>
                    </mxGeometry>
                </mxCell>
                <mxCell id="14" value="" style="endArrow=open;endFill=1;endSize=12;html=1;" edge="1" parent="1" source="6" target="8">
                    <mxGeometry width="160" relative="1" as="geometry">
                        <mxPoint x="-214.44444444444457" y="450" as="sourcePoint"/>
                        <mxPoint x="-245.55555555555566" y="410" as="targetPoint"/>
                    </mxGeometry>
                </mxCell>
                <mxCell id="15" value="" style="endArrow=open;endFill=1;endSize=12;html=1;" edge="1" parent="1" source="6" target="9">
                    <mxGeometry width="160" relative="1" as="geometry">
                        <mxPoint x="-213.18181818181824" y="500" as="sourcePoint"/>
                        <mxPoint x="-256.81818181818176" y="560" as="targetPoint"/>
                    </mxGeometry>
                </mxCell>
                <mxCell id="19" value="" style="endArrow=open;endFill=1;endSize=12;html=1;entryX=0;entryY=0.5;entryDx=0;entryDy=0;" edge="1" parent="1" source="9" target="12">
                    <mxGeometry width="160" relative="1" as="geometry">
                        <mxPoint x="200" y="487.4074074074074" as="sourcePoint"/>
                        <mxPoint x="360" y="455" as="targetPoint"/>
                    </mxGeometry>
                </mxCell>
                <mxCell id="20" value="" style="endArrow=open;endFill=1;endSize=12;html=1;" edge="1" parent="1" source="11" target="12">
                    <mxGeometry width="160" relative="1" as="geometry">
                        <mxPoint x="-20" y="470" as="sourcePoint"/>
                        <mxPoint x="240" y="470" as="targetPoint"/>
                    </mxGeometry>
                </mxCell>
                <mxCell id="22" value="" style="endArrow=open;endFill=1;endSize=12;html=1;entryX=0;entryY=0.5;entryDx=0;entryDy=0;" edge="1" parent="1" source="9" target="11">
                    <mxGeometry width="160" relative="1" as="geometry">
                        <mxPoint x="200" y="472.8571428571429" as="sourcePoint"/>
                        <mxPoint x="360" y="390.71428571428555" as="targetPoint"/>
                    </mxGeometry>
                </mxCell>
                <mxCell id="26" value="presentation層はfrontend/pages/apiとなる" style="shape=note;whiteSpace=wrap;html=1;backgroundOutline=1;darkOpacity=0.05;fillColor=#60a917;fontColor=#ffffff;strokeColor=#2D7600;fontSize=14;align=left;" vertex="1" parent="1">
                    <mxGeometry x="-310" y="90" width="205" height="90" as="geometry"/>
                </mxCell>
                <mxCell id="29" value="" style="endArrow=none;html=1;entryX=0.5;entryY=1;entryDx=0;entryDy=0;entryPerimeter=0;exitX=0.5;exitY=0.028;exitDx=0;exitDy=0;exitPerimeter=0;" edge="1" parent="1" source="3" target="26">
                    <mxGeometry width="50" height="50" relative="1" as="geometry">
                        <mxPoint x="-150" y="320" as="sourcePoint"/>
                        <mxPoint x="-100" y="270" as="targetPoint"/>
                    </mxGeometry>
                </mxCell>
                <mxCell id="31" value="features" style="shape=folder;fontStyle=1;spacingTop=10;tabWidth=40;tabHeight=14;tabPosition=left;html=1;verticalAlign=top;fillColor=none;" vertex="1" parent="1">
                    <mxGeometry x="10" y="470" width="290" height="140" as="geometry"/>
                </mxCell>
                <mxCell id="32" value="openai" style="html=1;" vertex="1" parent="1">
                    <mxGeometry x="80" y="520" width="110" height="50" as="geometry"/>
                </mxCell>
            </root>
        </mxGraphModel>
    </diagram>
</mxfile>